<mxfile host="65bd71144e" scale="1" border="10">
    <diagram id="KqGvIRFhO_OHiRRsd4W4" name="Page-1">
        <mxGraphModel dx="1055" dy="552" grid="1" gridSize="10" guides="1" tooltips="1" connect="1" arrows="1" fold="1" page="1" pageScale="1" pageWidth="827" pageHeight="1169" background="#ffffff" math="0" shadow="0">
            <root>
                <mxCell id="0"/>
                <mxCell id="1" parent="0"/>
                <mxCell id="8" value="Docker Containers" style="swimlane;whiteSpace=wrap;html=1;" parent="1" vertex="1">
                    <mxGeometry x="360" y="460" width="650" height="360" as="geometry"/>
                </mxCell>
                <mxCell id="3" value="Redis&lt;br&gt;KV-хранилище" style="sketch=0;aspect=fixed;html=1;points=[];align=center;image;fontSize=12;image=img/lib/mscae/Cache_Redis_Product.svg;" parent="8" vertex="1">
                    <mxGeometry x="529.4" y="247.5" width="51.19" height="43" as="geometry"/>
                </mxCell>
                <mxCell id="43" value="PG" style="aspect=fixed;html=1;points=[];align=center;image;fontSize=12;image=img/lib/azure2/databases/Azure_Database_PostgreSQL_Server.svg;" parent="8" vertex="1">
                    <mxGeometry x="390.99" y="237" width="48" height="64" as="geometry"/>
                </mxCell>
            </root>
        </mxGraphModel>
    </diagram>
</mxfile>
